<svg xmlns="http://www.w3.org/2000/svg" viewBox="0 0 217.6 217.6"><defs><style>.cls-1{fill:#fff;}</style></defs><g id="Calque_2" data-name="Calque 2"><g id="Capa_1" data-name="Capa 1"><path class="cls-1" d="M108.8,217.6A108.8,108.8,0,1,1,217.6,108.8,108.93,108.93,0,0,1,108.8,217.6ZM108.8,5A103.8,103.8,0,1,0,212.6,108.8,103.91,103.91,0,0,0,108.8,5Z"/><path class="cls-1" d="M102.41,116.39l39.37-58a7.35,7.35,0,0,1,10.58-1.7l12,9.23a7.37,7.37,0,0,1,1.59,10l-56.85,83.41a7.36,7.36,0,0,1-10.6,1.66L53.3,125.69a7.34,7.34,0,0,1-1.49-10l8.45-12a7.34,7.34,0,0,1,10.44-1.61l21.18,16A7.37,7.37,0,0,0,102.41,116.39Z"/></g></g></svg>