<svg xmlns="http://www.w3.org/2000/svg" viewBox="0 0 70.92 70.92"><defs><style>.cls-1{fill:#008b8b;}.cls-2{fill:#fff;}</style></defs><g id="Calque_2" data-name="Calque 2"><g id="Calque_1-2" data-name="Calque 1"><circle class="cls-1" cx="35.46" cy="35.46" r="35.46"/><path class="cls-2" d="M29.44,24.69V43.63c0,3.52.45,5.68,2.61,6.37a17.07,17.07,0,0,0,.25-3.54V34.86l1.4.06h.09c1.47,0,6.26-.38,6.26-5.28s-4.69-4.94-5.23-4.94H29.44ZM23.86,19.1V46.22c0,4.27.7,6.61,4.37,6.61a4.47,4.47,0,0,0,2.35-.52c-3.84-1.69-3.84-6.47-3.84-8.68V22h8.09c2.75,0,7.93,1.59,7.93,7.63,0,5.32-3.94,7.55-7.75,7.92v8.91a21,21,0,0,1-.23,3.71,3.24,3.24,0,0,0,1.92-.86c1.2-1.2,1.19-3.55,1.19-5.45v-4l1-.25c.27-.06,6.86-1.77,6.86-10,0-9.09-6.54-10.45-10.44-10.45Zm4.37,36.42c-7.06,0-7.06-6.51-7.06-9.29V16.41H35.35c3.07,0,13.14.95,13.14,13.14A12.78,12.78,0,0,1,44.05,39.8a12.44,12.44,0,0,1-3.47,2v2c0,2.27,0,5.37-2,7.36a6.53,6.53,0,0,1-4.8,1.72h-.06c-.87,1.32-2.51,2.59-5.52,2.59"/><path class="cls-2" d="M56.29,44.83a1.27,1.27,0,0,0-.6-.1H48a1.58,1.58,0,0,0-1.6,1.6v5.9a2.28,2.28,0,0,0-1.1.3,4.53,4.53,0,0,0-1.7,1.3,2.65,2.65,0,0,0-.4,2.4,2.47,2.47,0,0,0,1.9,1.5,4.16,4.16,0,0,0,2.2-.2,4.53,4.53,0,0,0,1.7-1.3,2.11,2.11,0,0,0,.5-1.3v-7.1h4.4v4.3a2.28,2.28,0,0,0-1.1.3,4.53,4.53,0,0,0-1.7,1.3,2.65,2.65,0,0,0-.4,2.4,2.47,2.47,0,0,0,1.9,1.5c.2,0,.5.1.7.1a4,4,0,0,0,1.5-.3,4.53,4.53,0,0,0,1.7-1.3,2.11,2.11,0,0,0,.5-1.3v-8.6A1.42,1.42,0,0,0,56.29,44.83Z"/></g></g></svg>