<?xml version="1.0" encoding="utf-8"?>
<!-- Generator: Adobe Illustrator 26.0.0, SVG Export Plug-In . SVG Version: 6.00 Build 0)  -->
<svg version="1.1" id="Calque_1" xmlns="http://www.w3.org/2000/svg" xmlns:xlink="http://www.w3.org/1999/xlink" x="0px" y="0px"
	 viewBox="0 0 70.9 70.9" style="enable-background:new 0 0 70.9 70.9;" xml:space="preserve">
<style type="text/css">
	.st0{fill:#008B8B;}
	.st1{fill:#FFFFFF;}
</style>
<circle class="st0" cx="35.5" cy="35.5" r="35.5"/>
<g>
	<path class="st1" d="M58.4,51.4c2.5-2.7,2.3-6.9-0.3-9.4c-2.7-2.5-6.9-2.3-9.4,0.3c-2.2,2.4-2.3,5.9-0.5,8.4c-0.4,0-0.7,0.1-1,0.3
		l-3,3.2c-0.7,0.7-0.6,1.9,0.1,2.6c0.7,0.7,1.9,0.6,2.6-0.1l3-3.2c0.3-0.3,0.3-0.7,0.3-1C52.7,54.2,56.2,53.7,58.4,51.4z M50.3,50.3
		c-1.9-1.7-2-4.7-0.2-6.6c1.7-1.9,4.7-2,6.6-0.2s2,4.7,0.2,6.6C55.2,51.9,52.2,52,50.3,50.3z"/>
</g>
<path class="st1" d="M29.4,24.7v18.9c0,3.5,0.5,5.7,2.6,6.4c0.2-1.2,0.3-2.4,0.2-3.5V34.9l1.4,0.1h0.1c1.5,0,6.3-0.4,6.3-5.3
	s-4.7-4.9-5.2-4.9L29.4,24.7L29.4,24.7z M23.9,19.1v27.1c0,4.3,0.7,6.6,4.4,6.6c0.8,0,1.6-0.1,2.4-0.5c-3.8-1.7-3.8-6.5-3.8-8.7V22
	h8.1c2.8,0,7.9,1.6,7.9,7.6c0,5.3-3.9,7.5-7.8,7.9v8.9c0,1.2,0,2.5-0.2,3.7c0.7-0.1,1.4-0.4,1.9-0.9c1.2-1.2,1.2-3.5,1.2-5.5v-4
	l1-0.2c0.3-0.1,6.9-1.8,6.9-10c0-9.1-6.5-10.5-10.4-10.5L23.9,19.1z M28.2,55.5c-7.1,0-7.1-6.5-7.1-9.3V16.4h14.2
	c3.1,0,13.1,1,13.1,13.1c0.2,3.9-1.5,7.7-4.4,10.2c-1,0.8-2.2,1.5-3.5,2v2c0,2.3,0,5.4-2,7.4c-1.3,1.2-3,1.8-4.8,1.7h-0.1
	C32.8,54.2,31.2,55.5,28.2,55.5"/>
</svg>
