<?xml version="1.0" encoding="utf-8"?>
<!-- Generator: Adobe Illustrator 26.0.0, SVG Export Plug-In . SVG Version: 6.00 Build 0)  -->
<svg version="1.1" id="Calque_1" xmlns="http://www.w3.org/2000/svg" xmlns:xlink="http://www.w3.org/1999/xlink" x="0px" y="0px"
	 viewBox="0 0 70.9 70.9" style="enable-background:new 0 0 70.9 70.9;" xml:space="preserve">
<style type="text/css">
	.st0{fill:#008B8B;}
	.st1{fill:#FFFFFF;}
</style>
<g id="Calque_2_00000150062035155760851130000012911480692566622626_">
	<g id="Calque_1-2">
		<circle class="st0" cx="35.5" cy="35.5" r="35.5"/>
		<path class="st1" d="M32,40.3c-1,1.7-1.9,3.3-2.7,4.9c-1.2,2.1-2.3,4.3-3.5,6.4c-0.2,0.3-0.5,0.6-0.9,0.8
			c-0.3-0.3-0.6-0.6-0.8-0.9c-3.2-7.3-6.4-14.7-9.6-22c-0.4-1.1-1-2-1.8-2.8c-0.9-0.6-1.8-1-2.8-1.4c-0.3-0.2-0.5-0.4-0.7-0.7
			c0.3-0.1,0.6-0.4,0.8-0.4c2.1,0,4.1,0.2,6.1,0.2c1.3,0,2.6-0.1,3.9-0.2c0.8,0,0.8,0,0.8,1l-0.4,0.1c-2.5,0.5-3.1,1.6-2.1,3.9
			c2.6,6,5.2,12,7.9,18.1c0.4-0.6,0.6-1.1,0.9-1.6c1.2-2.2,2.4-4.3,3.5-6.5c0.2-0.4,0.2-0.8,0.1-1.2c-1.5-3.2-3-6.4-4.5-9.5
			c-0.7-1.5-1.6-2.9-3.6-3.1c-0.2,0-0.3-0.4-0.5-0.6c0.2-0.1,0.4-0.4,0.6-0.4c1.2,0,2.3,0.2,3.5,0.2c1.8,0,3.7-0.1,5.5-0.2
			c0.8,0,0.9,0.3,0.7,1c-0.1,0-0.1,0.1-0.2,0.1c-2.7,0.4-3.1,1-1.9,3.5c0.9,1.9,1.9,3.8,2.9,5.8c1.1-2.2,2.2-4.1,3.2-6.1
			c0.8-1.6,0.1-2.7-1.7-3.1c-0.3-0.1-0.6-0.3-0.9-0.6c0.4-0.2,0.7-0.5,1.1-0.5c2.7,0,5.4,0,8.1,0c0.2,0.6,0.2,1-0.5,1.1
			c-1.5,0.1-2.8,1-3.5,2.3c-1.6,2.7-3.1,5.6-4.7,8.4c-0.1,0.2-0.1,0.5,0,0.8c1.6,3.3,3.2,6.5,4.8,9.8c0,0,0.1,0.1,0.2,0.2
			c1.2-2.7,2.4-5.5,3.5-8.2s2.4-5.6,3.7-8.4c0.1-0.3,0.2-0.5,0.3-0.8c1-2.5,0.4-3.6-2.3-4.1c-0.1-0.5-0.3-1,0.5-1h8.6
			c-0.4,0.5-0.6,1-0.8,1c-2,0.3-3.1,1.6-3.8,3.3c-2.2,4.9-4.3,9.7-6.5,14.5c-1.2,2.8-2.4,5.5-3.7,8.3c-0.2,0.4-0.5,0.7-0.9,1.1
			c-0.3-0.3-0.6-0.6-0.8-1c-1.7-3.4-3.4-6.9-5-10.4C32.2,40.8,32.1,40.6,32,40.3z"/>
		<g>
			<path class="st1" d="M60.8,47.3c2.5-2.7,2.3-6.9-0.3-9.4c-2.7-2.5-6.9-2.3-9.4,0.3c-2.2,2.4-2.3,5.9-0.5,8.4
				c-0.4,0-0.7,0.1-1,0.3l-3,3.2c-0.7,0.7-0.6,1.9,0.1,2.6c0.7,0.7,1.9,0.6,2.6-0.1l3-3.2c0.3-0.3,0.3-0.7,0.3-1
				C55.1,50.1,58.6,49.7,60.8,47.3z M52.7,46.2c-1.9-1.7-2-4.7-0.2-6.6c1.7-1.9,4.7-2,6.6-0.2s2,4.7,0.2,6.6
				C57.5,47.9,54.6,48,52.7,46.2z"/>
		</g>
	</g>
</g>
</svg>
